<?xml version="1.0" encoding="utf-8" standalone="yes"?><!-- Uploaded to: SVG Repo, www.svgrepo.com, Generator: SVG Repo Mixer Tools --><svg xmlns="http://www.w3.org/2000/svg" width="800px" height="800px" viewBox="0 0 24 24" fill="none" style="zoom: 1;"><path d="M10,1 C9.73478,1 9.48043,1.10536 9.29289,1.29289 L3.29289,7.29289 C3.10536,7.48043 3,7.73478 3,8 V20 C3,21.6569 4.34315,23 6,23 H7 C7.55228,23 8,22.5523 8,22 C8,21.4477 7.55228,21 7,21 H6 C5.44772,21 5,20.5523 5,20 V9 H10 C10.5523,9 11,8.55228 11,8 V3 H18 C18.5523,3 19,3.44772 19,4 V7 C19,7.55228 19.4477,8 20,8 C20.5523,8 21,7.55228 21,7 V4 C21,2.34315 19.6569,1 18,1 H10 M9,7 H6.41421 L9,4.41421 V7 M22.1213,10.7071 C20.9497,9.53553 19.0503,9.53553 17.8787,10.7071 L16.1989,12.3869 L11.2929,17.2929 C11.1647,17.4211 11.0738,17.5816 11.0299,17.7575 L10.0299,21.7575 C9.94466,22.0982 10.0445,22.4587 10.2929,22.7071 C10.5413,22.9555 10.9018,23.0553 11.2425,22.9701 L15.2425,21.9701 C15.4184,21.9262 15.5789,21.8353 15.7071,21.7071 L20.5556,16.8586 L22.2929,15.1213 C23.4645,13.9497 23.4645,12.0503 22.2929,10.8787 L22.1213,10.7071 M18.3068,13.1074 L19.2929,12.1213 C19.6834,11.7308 20.3166,11.7308 20.7071,12.1213 L20.8787,12.2929 C21.2692,12.6834 21.2692,13.3166 20.8787,13.7071 L19.8622,14.7236 L18.3068,13.1074 M16.8923,14.5219 L18.4477,16.1381 L14.4888,20.097 L12.3744,20.6256 L12.903,18.5112 L16.8923,14.5219 " fill-rule="evenodd" fill="currentColor" clip-rule="evenodd"></path></svg>